<svg xmlns="http://www.w3.org/2000/svg" width="32.552" height="27.921" viewBox="0 0 32.552 27.921">
  <g id="그룹_1827" data-name="그룹 1827" transform="translate(61.833 -20.748)">
    <g id="그룹_21" data-name="그룹 21" transform="translate(-61.833 20.748)">
      <g id="그룹_20" data-name="그룹 20">
        <path id="패스_1952" data-name="패스 1952" d="M561.216,2224.206h-27.43a2.369,2.369,0,0,1-2.561-2.093h0a2.368,2.368,0,0,1,2.561-2.093h27.43a2.368,2.368,0,0,1,2.561,2.093h0a2.342,2.342,0,0,1-2.53,2.093Z" transform="translate(-531.225 -2220.02)" fill="#111"/>
        <path id="패스_1953" data-name="패스 1953" d="M561.216,2246.732h-27.43a2.369,2.369,0,0,1-2.561-2.093h0a2.369,2.369,0,0,1,2.561-2.094h27.43a2.369,2.369,0,0,1,2.561,2.094h0a2.342,2.342,0,0,1-2.53,2.093Z" transform="translate(-531.225 -2230.679)" fill="#111"/>
        <path id="패스_1954" data-name="패스 1954" d="M561.216,2269.259h-27.43a2.369,2.369,0,0,1-2.561-2.094h0a2.37,2.37,0,0,1,2.561-2.093h27.43a2.37,2.37,0,0,1,2.561,2.093h0a2.342,2.342,0,0,1-2.53,2.094Z" transform="translate(-531.225 -2241.338)" fill="#111"/>
      </g>
    </g>
  </g>
</svg>
